<svg xmlns="http://www.w3.org/2000/svg" width="49" height="45" viewBox="0 0 49 45">
  <defs>
    <linearGradient id="a" x1="9.221%" x2="41.665%" y1="67.986%" y2="100%">
      <stop offset="0%" stop-color="#000000" stop-opacity="0"/>
      <stop offset="100%" stop-color="#000000" stop-opacity=".294"/>
      <stop offset="100%" stop-color="#000000" stop-opacity=".3"/>
    </linearGradient>
  </defs>
  <g fill="none" fill-rule="evenodd" transform="translate(0 .5)">
    <path fill="#C53348" d="M24.793825,4.1136688 L34.7251001,14.0449438 L14.86255,33.9074939 L4.93127502,23.9762188 C-0.553616721,18.4913271 -0.553616721,9.59856054 4.93127502,4.1136688 C10.4161668,-1.37122293 19.3089333,-1.37122293 24.793825,4.1136688 Z"/>
    <path fill="url(#a)" d="M24.793825,4.1136688 L34.7251001,14.0449438 L14.86255,33.9074939 L4.93127502,23.9762188 C-0.553616721,18.4913271 -0.553616721,9.59856054 4.93127502,4.1136688 C10.4161668,-1.37122293 19.3089333,-1.37122293 24.793825,4.1136688 Z"/>
    <path fill="#DB3951" d="M44.7251001,4.1136688 C50.2099918,9.59856054 50.2099918,18.4913271 44.7251001,23.9762188 L24.86255,43.8387689 L5,23.9762188 L24.86255,4.1136688 C30.3474418,-1.37122293 39.2402083,-1.37122293 44.7251001,4.1136688 Z"/>
  </g>
</svg>
