<svg xmlns="http://www.w3.org/2000/svg" width="140" height="140" viewBox="0 0 140 140">
  <defs>
    <linearGradient id="a" x1="0%" y1="0%" y2="100%">
      <stop offset="0%" stop-color="#7971EA"/>
      <stop offset="100%" stop-color="#605ABB"/>
    </linearGradient>
  </defs>
  <g fill="none" fill-rule="evenodd">
    <rect width="140" height="140"/>
    <g transform="translate(13 2)">
      <g transform="translate(22 5)">
        <polygon fill="url(#a)" points="12.936 123.841 14.615 121.421 73.769 121.421 75.447 123.841"/>
        <polygon fill="#E2EA71" points=".386 6.569 9.624 6.569 9.624 .93 .386 .93"/>
      </g>
      <g fill="#393E46" transform="translate(-1 -1)">
        <path d="M66.9581 110.4024C67.7865271 110.4024 68.4581 111.073973 68.4581 111.9024 68.4581 112.730827 67.7865271 113.4024 66.9581 113.4024L46.4541 113.4024C43.9696644 113.4024 42.7725155 110.302683 45.1911123 109.068424 47.919199 107.670663 49.7197583 105.495405 50.1994413 103.106166 50.2173059 103.016407 50.2173059 103.016407 50.2345941 102.926484 50.6364454 100.818065 50.717007 98.5552217 50.611445 96.5552097 50.5970523 96.282522 50.5830328 96.0930047 50.5744843 96.0006468 50.4981327 95.1757457 51.104952 94.4451359 51.9298532 94.3687843 52.7547543 94.2924327 53.4853641 94.899252 53.5617157 95.7241532 53.5737972 95.8546813 53.5907226 96.0834815 53.607275 96.3970878 53.7244674 98.6174534 53.6359394 101.10406 53.1815462 103.488155 53.1615173 103.592333 53.1615173 103.592333 53.1407534 103.69666 52.6178599 106.301124 51.0363762 108.644934 48.700861 110.4024L66.9581 110.4024zM65.6915 90.1158C65.6915 90.8152271 66.2590729 91.3828 66.9585 91.3828 67.6557553 91.3828 68.2245 90.8174108 68.2245 90.1158 68.2245 89.4141892 67.6557553 88.8488 66.9585 88.8488 66.2590729 88.8488 65.6915 89.4163729 65.6915 90.1158zM68.6915 90.1158C68.6915 91.0732271 67.9159271 91.8488 66.9585 91.8488 66.0028619 91.8488 65.2245 91.0750302 65.2245 90.1158 65.2245 89.1565698 66.0028619 88.3828 66.9585 88.3828 67.9159271 88.3828 68.6915 89.1583729 68.6915 90.1158z"/>
        <path d="M20.5803 85.8694L20.5803 91.1394C20.5803 92.9195784 22.0233326 94.3624 23.8033 94.3624L66.9913 94.3624C67.8197271 94.3624 68.4913 95.0339729 68.4913 95.8624 68.4913 96.6908271 67.8197271 97.3624 66.9913 97.3624L23.8033 97.3624C20.3665766 97.3624 17.5803 94.5765309 17.5803 91.1394L17.5803 84.3694C17.5803 83.5409729 18.2518729 82.8694 19.0803 82.8694L114.8353 82.8694C115.663727 82.8694 116.3353 83.5409729 116.3353 84.3694 116.3353 85.1978271 115.663727 85.8694 114.8353 85.8694L20.5803 85.8694zM80.7744413 103.696634C80.7536827 103.592333 80.7536827 103.592333 80.7336538 103.488155 80.2792606 101.10406 80.1907326 98.6174534 80.307925 96.3970878 80.3244774 96.0834815 80.3414028 95.8546813 80.3534843 95.7241532 80.4298359 94.899252 81.1604457 94.2924327 81.9853468 94.3687843 82.810248 94.4451359 83.4170673 95.1757457 83.3407157 96.0006468 83.3321672 96.0930047 83.3181477 96.282522 83.303755 96.5552097 83.198193 98.5552217 83.2787546 100.818065 83.6806059 102.926484 83.6978941 103.016407 83.6978941 103.016407 83.7156542 103.105646 84.1962743 105.495396 85.9971185 107.670723 88.7229296 109.06732 91.1444227 110.30306 89.9449912 113.4024 87.4611 113.4024L66.9581 113.4024C66.1296729 113.4024 65.4581 112.730827 65.4581 111.9024 65.4581 111.073973 66.1296729 110.4024 66.9581 110.4024L85.2150077 110.4024C82.8803149 108.645549 81.2983565 106.301657 80.7744413 103.696634z"/>
        <path d="M65.2247 90.1158C65.2247 89.1583729 66.0002729 88.3828 66.9577 88.3828 67.9133381 88.3828 68.6917 89.1565698 68.6917 90.1158 68.6917 91.0750302 67.9133381 91.8488 66.9577 91.8488 66.0002729 91.8488 65.2247 91.0732271 65.2247 90.1158zM68.2247 90.1158C68.2247 89.4163729 67.6571271 88.8488 66.9577 88.8488 66.2604447 88.8488 65.6917 89.4141892 65.6917 90.1158 65.6917 90.8174108 66.2604447 91.3828 66.9577 91.3828 67.6571271 91.3828 68.2247 90.8152271 68.2247 90.1158zM66.9249 97.3624C66.0964729 97.3624 65.4249 96.6908271 65.4249 95.8624 65.4249 95.0339729 66.0964729 94.3624 66.9249 94.3624L110.1129 94.3624C111.892578 94.3624 113.3349 92.9198674 113.3349 91.1394L113.3349 84.3694C113.3349 83.5409729 114.006473 82.8694 114.8349 82.8694 115.663327 82.8694 116.3349 83.5409729 116.3349 84.3694L116.3349 91.1394C116.3349 94.5766234 113.549531 97.3624 110.1129 97.3624L66.9249 97.3624zM17.5802 64.8062C17.5802 63.9777729 18.2517729 63.3062 19.0802 63.3062 19.9086271 63.3062 20.5802 63.9777729 20.5802 64.8062L20.5802 84.3692C20.5802 85.1976271 19.9086271 85.8692 19.0802 85.8692 18.2517729 85.8692 17.5802 85.1976271 17.5802 84.3692L17.5802 64.8062z"/>
        <path d="M116.3351 84.3692C116.3351 85.1976271 115.663527 85.8692 114.8351 85.8692 114.006673 85.8692 113.3351 85.1976271 113.3351 84.3692L113.3351 26.0842C113.3351 24.0846271 111.714673 22.4642 109.7151 22.4642L70.7051 22.4642C69.8766729 22.4642 69.2051 21.7926271 69.2051 20.9642 69.2051 20.1357729 69.8766729 19.4642 70.7051 19.4642L109.7151 19.4642C113.371527 19.4642 116.3351 22.4277729 116.3351 26.0842L116.3351 84.3692zM99.9093 119.921C100.401097 119.921 100.861655 120.162078 101.141911 120.566207L111.141911 134.986207C111.831748 135.980953 111.119834 137.341 109.9093 137.341L24.4733 137.341C23.2627655 137.341 22.5508518 135.980953 23.2406891 134.986207L33.2406891 120.566207C33.5209453 120.162078 33.9815031 119.921 34.4733 119.921L99.9093 119.921zM35.2584716 122.921L27.3389155 134.341 107.043685 134.341 99.1241284 122.921 35.2584716 122.921zM60.6886-.0004C63.7353148-.0004 66.2056 2.46946047 66.2056 5.5166L66.2056 27.0376C66.2056 30.0840271 63.7350271 32.5546 60.6886 32.5546L21.3656 32.5546C18.3184605 32.5546 15.8486 30.0843148 15.8486 27.0376L15.8486 5.5166C15.8486 2.46917288 18.3181729-.0004 21.3656-.0004L60.6886-.0004zM60.6886 2.9996L21.3656 2.9996C19.9750271 2.9996 18.8486 4.12602712 18.8486 5.5166L18.8486 27.0376C18.8486 28.427576 19.9754302 29.5546 21.3656 29.5546L60.6886 29.5546C62.0781729 29.5546 63.2056 28.4271729 63.2056 27.0376L63.2056 5.5166C63.2056 4.12643021 62.078576 2.9996 60.6886 2.9996zM1.5001 66.0108C.671672875 66.0108.0001 65.3392271.0001 64.5108.0001 63.6823729.671672875 63.0108 1.5001 63.0108L4.8241 63.0108C5.10167288 63.0108 5.3261 62.7863729 5.3261 62.5088L5.3261 36.2448C5.3261 35.9672271 5.10167288 35.7428 4.8241 35.7428L1.5001 35.7428C.671672875 35.7428.0001 35.0712271.0001 34.2428.0001 33.4143729.671672875 32.7428 1.5001 32.7428L4.8241 32.7428C6.75852712 32.7428 8.3261 34.3103729 8.3261 36.2448L8.3261 62.5088C8.3261 64.4432271 6.75852712 66.0108 4.8241 66.0108L1.5001 66.0108z"/>
        <path d="M35.1190397,40.8579702 C37.1122999,41.392307 39.3530676,41.4593002 41.6487435,40.7588677 C44.6896817,39.8312476 47.9576563,40.5140635 50.245512,42.628959 C50.3207236,42.6985993 50.3762806,42.7521603 50.4110602,42.7869398 C50.504938,42.8808177 50.5859371,42.9867434 50.6519346,43.1019408 C51.7054446,44.9408234 51.1316351,47.2866487 49.3764351,48.4779609 L48.1177719,49.3317324 C44.5768164,51.7350229 40.3954803,53.0196 36.1154,53.0196 L31.9474,53.0196 C31.1189729,53.0196 30.4474,52.3480271 30.4474,51.5196 C30.4474,50.6911729 31.1189729,50.0196 31.9474,50.0196 L36.1154,50.0196 C39.7948148,50.0196 43.3892201,48.9153379 46.4333649,46.8492391 L47.6920105,45.9954795 C48.1102956,45.7115757 48.276542,45.1907851 48.1221669,44.7532427 C46.6384791,43.4393591 44.5260141,43.0176471 42.5241424,43.6283061 C39.6379432,44.5089129 36.8401123,44.425265 34.3422511,43.7556588 C33.6138071,43.5603836 33.0728632,43.3589565 32.7509739,43.2101516 L32.5832352,43.1192409 C23.7893973,37.6022312 15.1048478,37.8387678 7.95049643,42.933456 C7.27568397,43.413997 6.33908495,43.2565089 5.85854396,42.5816964 C5.37800296,41.906884 5.53549111,40.9702849 6.21030357,40.489744 C14.3303398,34.7073815 24.2942046,34.4185481 34.0850991,40.5201421 C34.2822356,40.6031923 34.6350634,40.7282298 35.1190397,40.8579702 Z"/>
        <path d="M50.2574493 46.7992402C49.5010731 47.1371553 48.6139748 46.7979255 48.2760598 46.0415493 47.9381447 45.2851731 48.2773745 44.3980748 49.0337507 44.0601598L60.6217507 38.8831598C60.7617663 38.8206071 60.9105463 38.7798954 61.0629034 38.7624441 63.8576609 38.4423275 66.5191455 40.2301918 67.0926459 42.9624298 67.129549 43.1443097 67.1583276 43.3267918 67.179687 43.5164226 67.3661359 45.2191166 66.5173461 46.869251 65.0241411 47.7075415L46.2284537 58.2634271C42.1095922 60.4361426 37.5008488 61.456332 32.9053021 61.1942728 32.1061897 61.1487574 31.3142069 61.1025851 30.529423 61.0557866 23.9482132 60.6633334 18.115204 60.2427643 13.0938432 59.8220714 11.3350257 59.6747166 9.80292811 59.5378283 8.5054822 59.4149052 8.05066557 59.3718148 7.65748781 59.3335277 7.32694043 59.3004814 7.12764409 59.2805568 6.99296208 59.2667476 6.92388595 59.2594911 6.09999247 59.1729403 5.50225811 58.4348794 5.58880889 57.610986 5.67535967 56.7870925 6.41342057 56.1893581 7.23731405 56.2759089 7.30141338 56.2826426 7.43109835 56.2959394 7.62537654 56.3153623 7.95078668 56.3478951 8.33880608 56.3856798 8.78844226 56.4282794 10.0751473 56.5501849 11.5964157 56.6861056 13.3443076 56.8325451 18.3421164 57.2512648 24.1511901 57.6701081 30.7080029 58.0611065 31.4901303 58.1077466 32.2794518 58.1537637 33.0759982 58.1991329 37.1230095 58.4299121 41.1892842 57.5298033 44.7940589 55.6288585L63.5552979 45.0917243C63.9999989 44.8420676 64.253046 44.350118 64.1980322 43.8476513 64.1870697 43.7503593 64.172005 43.6548352 64.1545944 43.5688549 63.9236026 42.4684436 62.8272397 41.6817166 61.6102498 41.7273168L50.2574493 46.7992402zM64.7052 19.4644C65.5336271 19.4644 66.2052 20.1359729 66.2052 20.9644 66.2052 21.7928271 65.5336271 22.4644 64.7052 22.4644L17.3492 22.4644C16.5207729 22.4644 15.8492 21.7928271 15.8492 20.9644 15.8492 20.1359729 16.5207729 19.4644 17.3492 19.4644L64.7052 19.4644z"/>
      </g>
    </g>
  </g>
</svg>
