<svg xmlns="http://www.w3.org/2000/svg" width="140" height="140" viewBox="0 0 140 140">
  <g fill="none" fill-rule="evenodd">
    <rect width="140" height="140"/>
    <g transform="translate(2 22)">
      <path fill="#7971EA" d="M40.4886,40.0122 C39.6606,40.0122 38.8506,39.6012 38.3746,38.8502 C37.6356,37.6842 37.9826,36.1392 39.1486,35.4002 C40.1046,34.7942 48.8876,29.4812 62.6606,29.4812 C67.8816,29.4812 73.1866,30.2612 78.4296,31.8012 C79.7546,32.1902 80.5126,33.5792 80.1246,34.9052 C79.7346,36.2292 78.3466,36.9872 77.0206,36.5992 C72.2356,35.1932 67.4036,34.4812 62.6606,34.4812 C50.0866,34.4812 42.1556,39.4132 41.8246,39.6232 C41.4086,39.8872 40.9466,40.0122 40.4886,40.0122"/>
      <g fill="#393E46" transform="translate(-1 -1)">
        <path d="M52.9558264 23.5376718C53.460575 24.1945739 53.3372303 25.1362778 52.6803282 25.6410264 52.0234261 26.145775 51.0817222 26.0224303 50.5769736 25.3655282 49.234688 23.6186187 48.4924 21.487887 48.4924 19.2486 48.4924 13.6931729 52.9959729 9.1896 58.5514 9.1896 64.1068271 9.1896 68.6104 13.6931729 68.6104 19.2486 68.6104 20.8904164 68.2109674 22.4797753 67.4600377 23.9128196 67.0755263 24.646606 66.1689668 24.9297492 65.4351804 24.5452377 64.701394 24.1607263 64.4182508 23.2541668 64.8027623 22.5203804 65.3308539 21.5125914 65.6104 20.4002656 65.6104 19.2486 65.6104 15.3500271 62.4499729 12.1896 58.5514 12.1896 54.6528271 12.1896 51.4924 15.3500271 51.4924 19.2486 51.4924 20.8185655 52.0115293 22.308722 52.9558264 23.5376718zM40.3593437 19.3471232C41.1532403 19.1104381 41.9886917 19.5621472 42.2253768 20.3560437 42.4620619 21.1499403 42.0103528 21.9853917 41.2164563 22.2220768 26.9006498 26.4900612 14.9729 39.6006165 14.9729 52.1416 14.9729 58.6574589 15.9366094 63.3187749 18.2358942 66.957232 21.161758 71.5867884 23.2205996 76.9246605 24.4354213 82.759912 24.6539865 83.8098964 24.7356049 84.6739679 24.8436729 86.5525436 25.0061794 89.3774399 25.1663476 90.5988732 25.7008327 92.1264893 26.5562269 94.572772 28.8510452 96.2116 31.4259 96.2116L36.6359 96.2116C39.1104541 96.2116 40.901145 93.8351936 40.2012011 91.4834105 38.8774975 87.0349756 38.5469845 80.8950339 38.8890327 72.0983186 38.9212206 71.270517 39.6183798 70.6255447 40.4461814 70.6577327 41.273983 70.6899206 41.9189553 71.3870798 41.8867673 72.2148814 41.5568167 80.7004768 41.8735758 86.5849131 43.0765767 90.6277149 44.3511191 94.9101258 41.1098341 99.2116 36.6359 99.2116L31.4259 99.2116C27.572329 99.2116 24.1440909 96.7633483 22.8690603 93.1169765 22.2129399 91.2417134 22.0268112 89.8223082 21.8486245 86.7248383 21.7490659 84.9941828 21.6766787 84.2278387 21.4983864 83.371325 20.3537639 77.8732672 18.4242154 72.8706078 15.6998731 68.5599163 13.044894 64.358598 11.9729 59.1735255 11.9729 52.1416 11.9729 38.1399139 24.868637 23.9653817 40.3593437 19.3471232zM133.8323 50.6425C136.128703 50.6425 138.017517 52.5133207 138.000252 54.8095593 137.955787 60.3401754 135.925517 66.2294204 130.94843 71.6902906 124.085995 79.2197676 112.485657 84.8350274 95.2591477 87.8529972 94.4431485 87.9959548 93.6657605 87.4503468 93.5228028 86.6343477 93.3798452 85.8183485 93.9254532 85.0409605 94.7414523 84.8980028 111.35784 81.9869223 122.357885 76.6622404 128.73117 69.6694594 133.177378 64.7910716 134.961514 59.615791 135.000342 54.7862221 135.004991 54.1680036 134.474433 53.6425 133.8323 53.6425L131.0783 53.6425C130.421743 53.6425 129.841485 53.2155122 129.646193 52.5886721 127.97451 47.2229662 124.553707 42.4351725 119.88584 38.249155 117.471117 36.0836972 114.878488 34.2200068 112.286783 32.6644103 111.381261 32.120897 110.542058 31.6554769 109.791576 31.2686092 109.348071 31.0399859 109.037601 30.8904635 108.882543 30.8203854 108.294976 30.5548375 107.942851 29.9435025 108.007969 29.3020122 108.376933 25.6672934 110.356561 21.4832638 113.123146 17.2885471 106.103388 18.2280212 101.321832 19.9345526 97.410436 23.0917102 96.9734364 23.4444428 96.3760084 23.5235219 95.8622866 23.2966326 89.2764271 20.3879348 81.9245525 18.1924302 76.0622167 17.8986197 75.2348281 17.8571523 74.597713 17.1528054 74.6391803 16.3254167 74.6806477 15.4980281 75.3849946 14.860913 76.2123833 14.9023803 82.2630255 15.2056285 89.5758881 17.3298245 96.2504493 20.1936983 100.668944 16.8812447 106.002149 15.1371588 113.546091 14.2097306 115.791296 13.9334334 117.32197 16.4324224 116.051325 18.3070305 113.597682 21.9211805 111.73644 25.5753251 111.145165 28.5912381 111.152137 28.5948272 111.159137 28.598433 111.166164 28.6020554 111.972497 29.0177138 112.868031 29.5143753 113.830688 30.0921825 116.576636 31.7403587 119.321661 33.7135974 121.888749 36.0156923 126.629223 40.2668214 130.211018 45.1379241 132.159805 50.6425L133.8323 50.6425z"/>
        <path d="M40.0744723 86.632695C39.2938205 86.3554327 38.8857427 85.497824 39.163005 84.7171723 39.4402673 83.9365205 40.297876 83.5284427 41.0785277 83.805705 45.4083618 85.3435221 50.8444258 86.3348337 56.7962615 86.8762427 58.9060938 87.0681637 60.9367126 87.1893747 62.8145189 87.253849 63.9670326 87.2934204 64.923397 87.3060727 65.3110244 87.3022605 68.1573222 87.2766891 70.9168788 87.2041672 73.5929993 87.0856748 76.5851018 86.952893 79.2841658 88.8211309 80.220834 91.6698427 80.4475795 92.3613651 80.6929147 93.0671338 80.9495255 93.762316 81.4925376 95.231936 82.9075976 96.2112 84.4875 96.2112L91.1755 96.2112C93.7201561 96.2112 95.5294658 93.7519837 94.7810824 91.3078868 93.6600633 87.6423802 92.3176309 77.3226719 92.5881443 71.5499857 92.6269226 70.7224666 93.3291953 70.0830659 94.1567143 70.1218443 94.9842334 70.1606226 95.6236341 70.8628953 95.5848557 71.6904143 95.3306797 77.1144653 96.6283773 87.090282 97.6497686 90.4300264 98.9873451 94.7983304 95.7406818 99.2112 91.1755 99.2112L84.4875 99.2112C81.6554152 99.2112 79.1150314 97.4531781 78.1353081 94.8016333 77.8655543 94.0708458 77.6081627 93.3303936 77.3705508 92.6057295 76.8539675 91.034633 75.3731338 90.0096296 73.7258515 90.0827318 71.0140022 90.2028062 68.2192025 90.2762542 65.3392534 90.3021274 64.9077187 90.306372 63.9072819 90.2931367 62.7115749 90.2520822 60.7799693 90.1857608 58.6936423 90.0612244 56.5244885 89.8639073 50.3444614 89.3017408 44.6820221 88.2691478 40.0744723 86.632695zM117.5447 45.3032C117.5447 46.6986271 116.413127 47.8302 115.0177 47.8302 113.622273 47.8302 112.4907 46.6986271 112.4907 45.3032 112.4907 43.9083922 113.622653 42.7772 115.0177 42.7772 116.412747 42.7772 117.5447 43.9083922 117.5447 45.3032zM114.5447 45.3032C114.5447 45.5656984 114.756344 45.7772 115.0177 45.7772 115.279056 45.7772 115.4907 45.5656984 115.4907 45.3032 115.4907 45.0417729 115.279127 44.8302 115.0177 44.8302 114.756273 44.8302 114.5447 45.0417729 114.5447 45.3032zM106.0701 46.4966C106.0701 45.6681729 106.741673 44.9966 107.5701 44.9966 108.398527 44.9966 109.0701 45.6681729 109.0701 46.4966 109.0701 49.1222904 111.198645 51.2506 113.8251 51.2506 114.653527 51.2506 115.3251 51.9221729 115.3251 52.7506 115.3251 53.5790271 114.653527 54.2506 113.8251 54.2506 109.541865 54.2506 106.0701 50.7792188 106.0701 46.4966zM129.58085 52.2361261C129.528921 51.4093282 130.157076 50.6969791 130.983874 50.6450499 131.810672 50.5931207 132.523021 51.2212759 132.57495 52.0480739 132.577423 52.0874446 132.580483 52.1505005 132.58333 52.2358122 132.608453 52.9887117 132.576552 53.9555511 132.444104 55.062307 132.246067 56.7171299 131.856881 58.354596 131.226485 59.9006976 131.078405 60.263878 130.917912 60.6191787 130.744541 60.9659204 130.374057 61.7068881 129.473047 62.0072247 128.73208 61.6367408 127.991112 61.2662569 127.690775 60.3652474 128.061259 59.6242796 128.199899 59.3470001 128.328915 59.0613842 128.448524 58.7680325 128.969062 57.4913653 129.297255 56.1105218 129.465358 54.7058329 129.578367 53.7615125 129.605317 52.9447506 129.584999 52.3358622 129.583147 52.280373 129.581509 52.2466254 129.58085 52.2361261zM39.0608538 31.956124C38.3663977 32.4078122 37.4372642 32.2110099 36.985576 31.5165538 36.5338878 30.8220977 36.7306901 29.8929642 37.4251462 29.441276 37.7768168 29.2125423 38.4245914 28.8336149 39.3521115 28.3552318 40.8759842 27.5692705 42.6461941 26.7859856 44.6464035 26.0564237 55.2133312 22.2022134 67.4876949 21.317457 80.8386807 25.2384846 81.6335374 25.4719246 82.0886555 26.3055239 81.8552154 27.1003807 81.6217754 27.8952374 80.7881761 28.3503555 79.9933193 28.1169154 67.3018199 24.3895713 55.6732852 25.2277752 45.6743863 28.8748011 43.7965864 29.559715 42.1417712 30.2919399 40.7272754 31.0214884 40.2370129 31.274349 39.8131911 31.5078136 39.4579766 31.7156027 39.2520315 31.836074 39.1189368 31.9183457 39.0608538 31.956124z"/>
        <path d="M76.8372807 25.5932063C76.5687011 26.3768877 75.7156751 26.7944602 74.9319937 26.5258807 74.1483123 26.2573011 73.7307398 25.4042751 73.9993193 24.6205937 74.5774622 22.9336452 74.8763 21.1505415 74.8763 19.3259 74.8763 10.3093271 67.5678729 3.0009 58.5513 3.0009 49.5353687 3.0009 42.2263 10.3096855 42.2263 19.3259 42.2263 22.1671758 42.9522215 24.9007022 44.3146227 27.322436 44.7208083 28.0444504 44.4647784 28.9590372 43.742764 29.3652227 43.0207496 29.7714083 42.1061628 29.5153784 41.6999773 28.793364 40.0866105 25.9255267 39.2263 22.6859461 39.2263 19.3259 39.2263 8.65280523 47.8785405.0009 58.5513.0009 69.2247271.0009 77.8763 8.65247288 77.8763 19.3259 77.8763 21.4824484 77.5223945 23.5941303 76.8372807 25.5932063zM95.4881905 20.789048C96.1151728 20.2475828 97.0623868 20.3169081 97.603852 20.9438905 98.1453172 21.5708728 98.0759919 22.5180868 97.4490095 23.059552 97.4093865 23.0937707 97.3245288 23.1694057 97.2009803 23.2834391 96.9889852 23.4791074 96.7511683 23.707299 96.4940932 23.9649289 95.7571351 24.7034776 95.0196012 25.5243532 94.334188 26.4011777 93.7858297 27.1026728 93.2946541 27.8107073 92.8750288 28.5167028 92.4517563 29.2288347 91.5313291 29.4630014 90.8191972 29.0397288 90.1070653 28.6164563 89.8728986 27.6960291 90.2961712 26.9838972 90.7845224 26.1622742 91.347513 25.3507177 91.9706303 24.5535861 92.7360507 23.5744112 93.5529812 22.6651671 94.3704875 21.8458964 94.86458 21.3507376 95.2542131 20.991112 95.4881905 20.789048zM12.3954487 48.1164996C12.9300606 47.4836634 13.8764642 47.4040368 14.5093004 47.9386487 15.1421366 48.4732606 15.2217632 49.4196642 14.6871513 50.0525004 11.632779 53.668053 6.22557317 54.1231204 2.60944159 51.0694712-.427237491 48.5047687-.897730621 44.1355154 1.64028799 41.1316899 3.80653904 38.5665693 7.38676905 38.2879875 9.85848837 40.5415749 11.7763066 42.2919418 11.923986 45.4295462 10.2231285 47.2350478 9.65507724 47.838048 8.70575245 47.8663797 8.10275222 47.2983285 7.49975199 46.7302772 7.47142025 45.7809524 8.0394715 45.1779522 8.58281932 44.6011753 8.52566007 43.3867667 7.83667885 42.7579426 6.63567223 41.6629262 5.01159717 41.7892973 3.93207129 43.0675951 2.48401768 44.7814125 2.75117452 47.2623752 4.54507621 48.7774593 6.89549557 50.7622754 10.4102168 50.4664784 12.3954487 48.1164996z"/>
      </g>
    </g>
  </g>
</svg>
