<svg xmlns="http://www.w3.org/2000/svg" width="140" height="140" viewBox="0 0 140 140">
  <defs>
    <linearGradient id="a" x1="0%" y1="0%" y2="100%">
      <stop offset="0%" stop-color="#7971EA"/>
      <stop offset="100%" stop-color="#605ABB"/>
    </linearGradient>
  </defs>
  <g fill="none" fill-rule="evenodd">
    <rect width="140" height="140"/>
    <g transform="translate(6 9)">
      <path fill="url(#a)" d="M92.0313,31.3491 L92.0363,31.1251 L72.9043,50.2581 L81.3823,58.7371 L100.2943,39.8261 C95.6523,39.8121 91.9273,35.9901 92.0313,31.3491"/>
      <g fill="#393E46" transform="translate(-1 -1)">
        <path d="M125.519494,6.83520578 L126.653339,6.98782014 L126.805988,8.12166056 C128.249182,18.8413636 124.763009,28.1315117 116.500077,36.3944431 L85.5155967,67.3799234 C83.7848392,69.1091694 80.9794491,69.1091694 79.2497398,67.3794602 L66.2617398,54.3914602 C64.5309534,52.6606737 64.5309534,49.8559263 66.2617398,48.1251398 L97.2457398,17.1411398 C105.496772,8.89010772 114.788037,5.39076291 125.519494,6.83520578 Z M99.3670602,19.2624602 L68.3830602,50.2464602 C67.8238466,50.8056737 67.8238466,51.7109263 68.3830602,52.2701398 L81.3710602,65.2581398 C81.9293509,65.8164306 82.8359608,65.8164306 83.3947227,65.2581569 L114.37874,34.2731398 C121.702397,26.9494827 124.890228,18.9369084 123.967779,9.67347779 C114.694589,8.75054622 106.680366,11.949154 99.3670602,19.2624602 Z"/>
        <path d="M77.1527802 63.5853745C77.5942908 62.8844037 78.5204548 62.6740697 79.2214255 63.1155802 79.9223963 63.5570908 80.1327303 64.4832548 79.6912198 65.1842255L75.6700263 71.5685326C74.7021706 73.1043388 72.5588195 73.3448123 71.2732854 72.0614057L61.5353398 62.3224602C60.2510212 61.0381415 60.4909346 58.8949612 62.0275745 57.9265802L68.4115745 53.9055802C69.1125452 53.4640697 70.0387092 53.6744037 70.4802198 54.3753745 70.9217303 55.0763452 70.7113963 56.0025092 70.0104255 56.4440198L63.8068704 60.3513655 73.2446732 69.7901383 77.1527802 63.5853745zM95.5128 53.7608C95.5128 52.9323729 96.1843729 52.2608 97.0128 52.2608 97.8412271 52.2608 98.5128 52.9323729 98.5128 53.7608L98.5128 71.4500746 85.9068 84.0573869 85.9068 70.7108C85.9068 69.8823729 86.5783729 69.2108 87.4068 69.2108 88.2352271 69.2108 88.9068 69.8823729 88.9068 70.7108L88.9068 76.8142131 95.5128 70.2075254 95.5128 53.7608zM62.9304 44.735C63.7588271 44.735 64.4304 45.4065729 64.4304 46.235 64.4304 47.0634271 63.7588271 47.735 62.9304 47.735L49.5843462 47.735 62.1900339 35.128 79.8804 35.128C80.7088271 35.128 81.3804 35.7995729 81.3804 36.628 81.3804 37.4564271 80.7088271 38.128 79.8804 38.128L63.4327661 38.128 56.8264538 44.735 62.9304 44.735zM121.502533 27.055521C122.282237 27.3354374 122.687395 28.1944295 122.407479 28.9741334 122.127563 29.7538374 121.268571 30.1589954 120.488867 29.879079 116.672688 28.5090578 113.189581 26.3115017 110.26004 23.3819602 107.33027 20.45219 105.132374 16.9684341 103.761967 13.1522606 103.48198 12.3725818 103.887061 11.5135533 104.666739 11.2335667 105.446418 10.9535801 106.305447 11.3586606 106.585433 12.1383394 107.807084 15.5402695 109.766079 18.6453591 112.38136 21.2606398 114.996392 23.8756713 118.100753 25.8342704 121.502533 27.055521zM51.9148064 87.3950975C55.9070719 86.0696938 60.2274789 83.3179852 64.7866509 78.7837367 65.3740407 78.199558 66.3237846 78.2021611 66.9079633 78.7895509 67.492142 79.3769407 67.4895389 80.3266846 66.9021491 80.9108633 58.2483754 89.5173296 50.6408609 92.0429702 44.9985235 91.1382729 44.6413124 91.0809973 44.3778732 91.0190557 44.212653 90.9683929L43.4516571 90.7350429 43.2183071 89.974047C43.1676443 89.8088268 43.1057027 89.5453876 43.0484271 89.1881765 42.1437298 83.5458391 44.6693704 75.9383246 53.2758367 67.2845509 53.8600154 66.6971611 54.8097593 66.694558 55.3971491 67.2787367 55.9845389 67.8629154 55.987142 68.8126593 55.4029633 69.4000491 50.8687148 73.9592211 48.1170062 78.2796281 46.7916025 82.2718936 45.9894933 84.6879368 45.7901542 86.6957479 45.9484543 88.2382457 47.4909521 88.3965458 49.4987632 88.1972067 51.9148064 87.3950975z"/>
        <path d="M61.8515398 70.2714398C62.4373263 69.6856534 63.3870737 69.6856534 63.9728602 70.2714398 64.5586466 70.8572263 64.5586466 71.8069737 63.9728602 72.3927602L57.8768602 78.4887602C57.2910737 79.0745466 56.3413263 79.0745466 55.7555398 78.4887602 55.1697534 77.9029737 55.1697534 76.9532263 55.7555398 76.3674398L61.8515398 70.2714398zM11.9639 113.2378C11.1354729 113.2378 10.4639 112.566227 10.4639 111.7378 10.4639 110.909373 11.1354729 110.2378 11.9639 110.2378L120.9639 110.2378C121.792327 110.2378 122.4639 110.909373 122.4639 111.7378 122.4639 112.566227 121.792327 113.2378 120.9639 113.2378L11.9639 113.2378zM11.9639 124.3628C11.1354729 124.3628 10.4639 123.691227 10.4639 122.8628 10.4639 122.034373 11.1354729 121.3628 11.9639 121.3628L53.0779 121.3628C53.9063271 121.3628 54.5779 122.034373 54.5779 122.8628 54.5779 123.691227 53.9063271 124.3628 53.0779 124.3628L11.9639 124.3628zM69.9024 124.3628C69.0739729 124.3628 68.4024 123.691227 68.4024 122.8628 68.4024 122.034373 69.0739729 121.3628 69.9024 121.3628L93.9284 121.3628C94.7568271 121.3628 95.4284 122.034373 95.4284 122.8628 95.4284 123.691227 94.7568271 124.3628 93.9284 124.3628L69.9024 124.3628zM107.7325 124.3628C106.904073 124.3628 106.2325 123.691227 106.2325 122.8628 106.2325 122.034373 106.904073 121.3628 107.7325 121.3628L120.9635 121.3628C121.791927 121.3628 122.4635 122.034373 122.4635 122.8628 122.4635 123.691227 121.791927 124.3628 120.9635 124.3628L107.7325 124.3628zM69.9122 19.4878C69.9122 20.3162271 69.2406271 20.9878 68.4122 20.9878 67.5837729 20.9878 66.9122 20.3162271 66.9122 19.4878 66.9122 16.5265294 64.5159831 14.1240236 61.5570992 14.1138325 61.545734 14.1140907 61.5314555 14.114402 61.5132 14.1148 60.6602727 14.1148 59.9789926 13.4045421 60.0145004 12.5523542 60.0173886 12.4830366 60.0207807 12.426928 60.0275366 12.3264467L60.0276813 12.3242841C60.0358625 12.2020868 60.0382 12.155315 60.0382 12.1118 60.0382 7.07922712 55.9587729 2.9998 50.9262 2.9998 48.1054692 2.9998 45.5017309 4.29270341 43.7787151 6.47129035 43.2877724 7.0920399 42.3990236 7.22456781 41.748337 6.77405506 40.6219932 5.99421368 39.2935459 5.5708 37.8992 5.5708 34.776784 5.5708 32.0829643 7.70605744 31.3332231 10.698365 31.1157347 11.5663877 30.1914821 12.0521186 29.3532224 11.7389329 28.5864654 11.4524616 27.7919585 11.3038 26.9862 11.3038 23.2420005 11.3038 20.2072 14.3388537 20.2072 18.0828 20.2072 21.8267463 23.2420005 24.8618 26.9862 24.8618L54.8082 24.8618C55.6366271 24.8618 56.3082 25.5333729 56.3082 26.3618 56.3082 27.1902271 55.6366271 27.8618 54.8082 27.8618L26.9862 27.8618C21.5850902 27.8618 17.2072 23.4835445 17.2072 18.0828 17.2072 12.6820555 21.5850902 8.3038 26.9862 8.3038 27.6384226 8.3038 28.2839808 8.37053914 28.9175292 8.50051209 30.4274971 4.96943434 33.9212819 2.5708 37.8992 2.5708 39.4509879 2.5708 40.9504704 2.93583637 42.3002558 3.61906261 44.5490516 1.33161916 47.6279907-.0002 50.9262-.0002 57.3232585-.0002 62.5617813 4.95873247 63.007472 11.2423011 66.9314294 11.9369351 69.9122 15.3646293 69.9122 19.4878zM33.7191 53.1673C40.4085271 53.1673 45.8311 58.5898729 45.8311 65.2793 45.8311 66.1077271 45.1595271 66.7793 44.3311 66.7793 43.5026729 66.7793 42.8311 66.1077271 42.8311 65.2793 42.8311 60.2467271 38.7516729 56.1673 33.7191 56.1673 30.8983692 56.1673 28.2946309 57.4602034 26.5716151 59.6387904 26.0805467 60.2596989 25.1915 60.3921119 24.5408048 59.9412557 23.4160152 59.1619071 22.0867509 58.7383 20.6921 58.7383 17.5699978 58.7383 14.8767658 60.8732811 14.1260277 63.8662457 13.9083504 64.7340591 12.984235 65.2195637 12.1461224 64.9064329 11.3789614 64.6198107 10.5854666 64.4713 9.7791 64.4713 6.03452712 64.4713 3.0001 67.5057271 3.0001 71.2503 3.0001 74.9942463 6.0349005 78.0293 9.7791 78.0293L36.7211 78.0293C37.5495271 78.0293 38.2211 78.7008729 38.2211 79.5293 38.2211 80.3577271 37.5495271 81.0293 36.7211 81.0293L9.7791 81.0293C4.37799022 81.0293.0001 76.6510445.0001 71.2503.0001 65.8488729 4.37767288 61.4713 9.7791 61.4713 10.431763 61.4713 11.0772386 61.5380121 11.7107094 61.6680001 13.2212545 58.1367442 16.7143823 55.7383 20.6921 55.7383 22.2439173 55.7383 23.7439141 56.1033671 25.0932925 56.7864236 27.3420764 54.4990652 30.4209575 53.1673 33.7191 53.1673zM122.3413 95.6939L87.7203 95.6939C86.8918729 95.6939 86.2203 95.0223271 86.2203 94.1939 86.2203 93.3654729 86.8918729 92.6939 87.7203 92.6939L122.245892 92.6939C122.272464 92.6922288 122.299225 92.6912483 122.326157 92.6909764 125.271813 92.6612382 127.6463 90.2662519 127.6463 87.3199 127.6463 84.35825 125.2507 81.9561203 122.2912 81.9459325 122.279835 81.9461907 122.265556 81.946502 122.2473 81.9469 121.39086 81.9469 120.708261 81.2310229 120.748998 80.3755523 120.751905 80.3144948 120.754968 80.2649487 120.761081 80.1734963L120.762029 80.1592443C120.769782 80.0426295 120.7723 79.9904195 120.7723 79.9439 120.7723 74.9113271 116.692873 70.8319 111.6603 70.8319 109.918114 70.8319 108.253389 71.321835 106.814398 72.2324324 106.114359 72.675419 105.187754 72.4670371 104.744768 71.7669982 104.301781 71.0669594 104.510163 70.1403542 105.210202 69.6973676 107.125557 68.4853254 109.345798 67.8319 111.6603 67.8319 118.057344 67.8319 123.295858 72.7908105 123.741569 79.0743593 127.665985 79.7688695 130.6463 83.1963881 130.6463 87.3199 130.6463 91.8769849 127.002734 95.5870449 122.462151 95.6891023 122.422286 95.6922805 122.381982 95.6939 122.3413 95.6939z"/>
      </g>
    </g>
  </g>
</svg>
