<svg xmlns="http://www.w3.org/2000/svg" width="140" height="140" viewBox="0 0 140 140">
  <g fill="none" fill-rule="evenodd">
    <rect width="140" height="140"/>
    <g transform="translate(5 8)">
      <path fill="#E2EA71" d="M118.3639,74.8268 L118.3639,51.8778 C118.3639,51.8778 115.0249,74.1558 97.4829,74.1558 L43.3849,74.1558 C39.2119,74.1558 35.0699,75.2958 31.6499,77.6868 C28.4929,79.8948 25.5789,83.3108 25.5789,88.3998 L104.7919,88.3998 C112.2759,88.3998 118.3639,82.3108 118.3639,74.8268"/>
      <g fill="#393E46">
        <path d="M3.9994,116.172618 L24.2518983,96.5043 L104.7914,96.5043 C116.763973,96.5043 126.4694,86.7988729 126.4694,74.8263 L126.4694,25.6773 C126.4694,13.7047271 116.763973,3.9993 104.7914,3.9993 L25.6784,3.9993 C13.7056164,3.9993 3.9994,13.7049379 3.9994,25.6773 L3.9994,116.172618 Z M0.9994,123.267982 L0.9994,25.6773 C0.9994,12.0480436 12.0488021,0.9993 25.6784,0.9993 L104.7914,0.9993 C118.420827,0.9993 129.4694,12.0478729 129.4694,25.6773 L129.4694,74.8263 C129.4694,88.4557271 118.420827,99.5043 104.7914,99.5043 L25.4689017,99.5043 L0.9994,123.267982 Z"/>
        <path d="M80.4947621,53.5096827 C79.5843779,54.2620131 76.1304985,57.0597258 75.3550672,57.6980546 C71.4157652,60.9408558 68.7424224,63.4180506 66.374568,66.1775898 C65.7760078,66.8751624 64.6965416,66.8752106 64.0979192,66.1776914 C61.7301001,63.4186915 59.0568933,60.9417923 55.1185635,57.69992 C54.3424402,57.061047 50.8869543,54.2621897 49.9763403,53.5097048 C39.8438112,45.1367017 35.8770373,39.0617799 36.7057432,29.4449639 C37.3823708,21.5963044 44.4080242,15.2518 52.3352,15.2518 C57.9860361,15.2518 62.8779787,18.5075023 65.2359824,23.2450151 C67.5933626,18.5074607 72.4841481,15.2518 78.1342,15.2518 C86.0620255,15.2518 93.086966,21.5959514 93.7636517,29.4449043 C94.5934562,39.0616188 90.6271198,45.136427 80.4947621,53.5096827 Z M73.4484114,55.3818802 C74.236867,54.73283 77.6877732,51.9375256 78.5837044,51.197139 C88.0299672,43.3908636 91.4976091,38.0798389 90.7747534,29.7027553 C90.2327077,23.4152019 84.515239,18.2518 78.1342,18.2518 C71.8402638,18.2518 66.7362,23.3555905 66.7362,29.6498 C66.7362,31.6498 63.7362,31.6498 63.7362,29.6498 C63.7362,23.355907 58.6304529,18.2518 52.3352,18.2518 C45.9547998,18.2518 40.2366619,23.4155548 39.6946615,29.7025816 C38.9727742,38.0798095 42.4408759,43.3910391 51.8873445,51.1971169 C52.7834976,51.937652 56.2360159,54.7341057 57.0251742,55.3837085 C60.4820118,58.2292361 63.0149374,60.5230139 65.2361054,62.9417398 C67.4574162,60.5224792 69.9906282,58.2282991 73.4484114,55.3818802 Z"/>
      </g>
    </g>
  </g>
</svg>
